HIERARCHY
ROOT Hips
{
	OFFSET 0.000000 100.481300 0.000000
	CHANNELS 6 Xposition Yposition Zposition Xrotation Yrotation Zrotation
	JOINT Spine
	{
		OFFSET -0.279200 12.230698 -2.892100
		CHANNELS 3 Xrotation Yrotation Zrotation
		JOINT Spine1
		{
			OFFSET -0.325700 14.269203 -3.374200
			CHANNELS 3 Xrotation Yrotation Zrotation
			JOINT Spine2
			{
				OFFSET -0.372300 16.307602 -0.352600
				CHANNELS 3 Xrotation Yrotation Zrotation
				JOINT Neck
				{
					OFFSET -0.418800 17.814194 8.416900
					CHANNELS 3 Xrotation Yrotation Zrotation
					JOINT Head
					{
						OFFSET 0.000000 7.031097 3.806800
						CHANNELS 3 Xrotation Yrotation Zrotation
						JOINT HeadTop_End
						{
							OFFSET 0.000000 24.646606 12.978600
							CHANNELS 3 Xrotation Yrotation Zrotation
							End Site
							{
								OFFSET 0.000000 27.854965 0.000000
							}
						}
					}
				}
				JOINT LeftShoulder
				{
					OFFSET 16.952999 14.495407 -7.737500
					CHANNELS 3 Xrotation Yrotation Zrotation
					JOINT LeftArm
					{
						OFFSET 9.308998 -2.777710 0.208600
						CHANNELS 3 Xrotation Yrotation Zrotation
						JOINT LeftForeArm
						{
							OFFSET 29.972298 0.000000 0.000000
							CHANNELS 3 Xrotation Yrotation Zrotation
							JOINT LeftHand
							{
								OFFSET 26.026505 0.000000 0.000000
								CHANNELS 3 Xrotation Yrotation Zrotation
								JOINT LeftHandThumb1
								{
									OFFSET 12.240501 -7.147949 9.207150
									CHANNELS 3 Xrotation Yrotation Zrotation
									JOINT LeftHandThumb2
									{
										OFFSET 4.138618 -2.389435 2.389433
										CHANNELS 3 Xrotation Yrotation Zrotation
										JOINT LeftHandThumb3
										{
											OFFSET 2.726913 -1.574387 1.574386
											CHANNELS 3 Xrotation Yrotation Zrotation
											JOINT LeftHandThumb4
											{
												OFFSET 3.941010 -2.275345 2.275342
												CHANNELS 3 Xrotation Yrotation Zrotation
												End Site
												{
													OFFSET -0.005798 5.087799 0.009903
												}
											}
										}
									}
								}
								JOINT LeftHandIndex1
								{
									OFFSET 24.424698 -1.985611 5.953459
									CHANNELS 3 Xrotation Yrotation Zrotation
									JOINT LeftHandIndex2
									{
										OFFSET 6.426697 0.000000 0.000000
										CHANNELS 3 Xrotation Yrotation Zrotation
										JOINT LeftHandIndex3
										{
											OFFSET 5.337898 0.000000 0.000000
											CHANNELS 3 Xrotation Yrotation Zrotation
											JOINT LeftHandIndex4
											{
												OFFSET 4.409401 0.000000 0.000000
												CHANNELS 3 Xrotation Yrotation Zrotation
												End Site
												{
													OFFSET 0.000000 4.409363 0.014373
												}
											}
										}
									}
								}
								JOINT LeftHandMiddle1
								{
									OFFSET 23.810104 0.000000 0.000000
									CHANNELS 3 Xrotation Yrotation Zrotation
									JOINT LeftHandMiddle2
									{
										OFFSET 7.176498 0.000000 0.000000
										CHANNELS 3 Xrotation Yrotation Zrotation
										JOINT LeftHandMiddle3
										{
											OFFSET 6.774902 0.000000 0.000000
											CHANNELS 3 Xrotation Yrotation Zrotation
											JOINT LeftHandMiddle4
											{
												OFFSET 5.403328 0.000000 0.000000
												CHANNELS 3 Xrotation Yrotation Zrotation
												End Site
												{
													OFFSET -0.027702 5.403244 0.017414
												}
											}
										}
									}
								}
								JOINT LeftHandRing1
								{
									OFFSET 22.908401 -0.839279 -6.020567
									CHANNELS 3 Xrotation Yrotation Zrotation
									JOINT LeftHandRing2
									{
										OFFSET 6.337502 0.000000 0.000000
										CHANNELS 3 Xrotation Yrotation Zrotation
										JOINT LeftHandRing3
										{
											OFFSET 5.779297 0.000000 0.000000
											CHANNELS 3 Xrotation Yrotation Zrotation
											JOINT LeftHandRing4
											{
												OFFSET 4.965698 0.000000 0.000000
												CHANNELS 3 Xrotation Yrotation Zrotation
												End Site
												{
													OFFSET 0.000000 4.965668 0.016186
												}
											}
										}
									}
								}
								JOINT LeftHandPinky1
								{
									OFFSET 20.037003 -1.530319 -10.950146
									CHANNELS 3 Xrotation Yrotation Zrotation
									JOINT LeftHandPinky2
									{
										OFFSET 5.254700 0.000000 0.000000
										CHANNELS 3 Xrotation Yrotation Zrotation
										JOINT LeftHandPinky3
										{
											OFFSET 4.810204 0.000000 0.000000
											CHANNELS 3 Xrotation Yrotation Zrotation
											JOINT LeftHandPinky4
											{
												OFFSET 3.647202 0.000000 0.000000
												CHANNELS 3 Xrotation Yrotation Zrotation
												End Site
												{
													OFFSET 0.000000 3.647186 0.011889
												}
											}
										}
									}
								}
							}
						}
					}
				}
				JOINT RightShoulder
				{
					OFFSET -15.141001 14.495407 -7.737500
					CHANNELS 3 Xrotation Yrotation Zrotation
					JOINT RightArm
					{
						OFFSET -9.308998 -2.777710 0.208500
						CHANNELS 3 Xrotation Yrotation Zrotation
						JOINT RightForeArm
						{
							OFFSET -29.972300 0.000000 0.000000
							CHANNELS 3 Xrotation Yrotation Zrotation
							JOINT RightHand
							{
								OFFSET -26.026505 0.000000 0.000000
								CHANNELS 3 Xrotation Yrotation Zrotation
								JOINT RightHandThumb1
								{
									OFFSET -12.240601 -7.148026 9.207092
									CHANNELS 3 Xrotation Yrotation Zrotation
									JOINT RightHandThumb2
									{
										OFFSET -4.138618 -2.389435 2.389433
										CHANNELS 3 Xrotation Yrotation Zrotation
										JOINT RightHandThumb3
										{
											OFFSET -2.726974 -1.574417 1.574421
											CHANNELS 3 Xrotation Yrotation Zrotation
											JOINT RightHandThumb4
											{
												OFFSET -3.941010 -2.275345 2.275343
												CHANNELS 3 Xrotation Yrotation Zrotation
												End Site
												{
													OFFSET 0.005814 5.087799 0.009927
												}
											}
										}
									}
								}
								JOINT RightHandIndex1
								{
									OFFSET -24.424698 -1.985657 5.953444
									CHANNELS 3 Xrotation Yrotation Zrotation
									JOINT RightHandIndex2
									{
										OFFSET -6.426697 0.000000 0.000000
										CHANNELS 3 Xrotation Yrotation Zrotation
										JOINT RightHandIndex3
										{
											OFFSET -5.337898 0.000000 0.000000
											CHANNELS 3 Xrotation Yrotation Zrotation
											JOINT RightHandIndex4
											{
												OFFSET -4.409401 0.000000 0.000000
												CHANNELS 3 Xrotation Yrotation Zrotation
												End Site
												{
													OFFSET 0.000000 4.409363 0.014408
												}
											}
										}
									}
								}
								JOINT RightHandMiddle1
								{
									OFFSET -23.810097 0.000000 0.000000
									CHANNELS 3 Xrotation Yrotation Zrotation
									JOINT RightHandMiddle2
									{
										OFFSET -7.176498 0.000000 0.000000
										CHANNELS 3 Xrotation Yrotation Zrotation
										JOINT RightHandMiddle3
										{
											OFFSET -6.774902 0.000000 0.000000
											CHANNELS 3 Xrotation Yrotation Zrotation
											JOINT RightHandMiddle4
											{
												OFFSET -5.403328 0.000000 0.000000
												CHANNELS 3 Xrotation Yrotation Zrotation
												End Site
												{
													OFFSET 0.027702 5.403244 0.017457
												}
											}
										}
									}
								}
								JOINT RightHandRing1
								{
									OFFSET -22.908302 -0.839325 -6.020576
									CHANNELS 3 Xrotation Yrotation Zrotation
									JOINT RightHandRing2
									{
										OFFSET -6.337502 0.000000 0.000000
										CHANNELS 3 Xrotation Yrotation Zrotation
										JOINT RightHandRing3
										{
											OFFSET -5.779297 0.000000 0.000000
											CHANNELS 3 Xrotation Yrotation Zrotation
											JOINT RightHandRing4
											{
												OFFSET -4.965698 0.000000 0.000000
												CHANNELS 3 Xrotation Yrotation Zrotation
												End Site
												{
													OFFSET 0.000000 4.965668 0.016226
												}
											}
										}
									}
								}
								JOINT RightHandPinky1
								{
									OFFSET -20.037003 -1.530334 -10.950259
									CHANNELS 3 Xrotation Yrotation Zrotation
									JOINT RightHandPinky2
									{
										OFFSET -5.254700 0.000000 0.000000
										CHANNELS 3 Xrotation Yrotation Zrotation
										JOINT RightHandPinky3
										{
											OFFSET -4.810204 0.000000 0.000000
											CHANNELS 3 Xrotation Yrotation Zrotation
											JOINT RightHandPinky4
											{
												OFFSET -3.647202 0.000000 0.000000
												CHANNELS 3 Xrotation Yrotation Zrotation
												End Site
												{
													OFFSET 0.000000 3.647186 0.011917
												}
											}
										}
									}
								}
							}
						}
					}
				}
			}
		}
	}
	JOINT LeftUpLeg
	{
		OFFSET 15.427100 -6.655098 0.678600
		CHANNELS 3 Xrotation Yrotation Zrotation
		JOINT LeftLeg
		{
			OFFSET 4.081073 -39.591068 13.024000
			CHANNELS 3 Xrotation Yrotation Zrotation
			JOINT LeftFoot
			{
				OFFSET -4.081074 -37.707932 -15.979700
				CHANNELS 3 Xrotation Yrotation Zrotation
				JOINT LeftToeBase
				{
					OFFSET 5.346399 -15.068900 20.645000
					CHANNELS 3 Xrotation Yrotation Zrotation
					JOINT LeftToe_End
					{
						OFFSET 2.754700 0.931300 11.300900
						CHANNELS 3 Xrotation Yrotation Zrotation
						End Site
						{
							OFFSET 0.000000 11.669021 0.000000
						}
					}
				}
			}
		}
	}
	JOINT RightUpLeg
	{
		OFFSET -15.569500 -6.655098 0.678600
		CHANNELS 3 Xrotation Yrotation Zrotation
		JOINT RightLeg
		{
			OFFSET -4.081825 -39.591045 13.023800
			CHANNELS 3 Xrotation Yrotation Zrotation
			JOINT RightFoot
			{
				OFFSET 4.081824 -37.707954 -15.979600
				CHANNELS 3 Xrotation Yrotation Zrotation
				JOINT RightToeBase
				{
					OFFSET -5.346400 -15.068900 20.645000
					CHANNELS 3 Xrotation Yrotation Zrotation
					JOINT RightToe_End
					{
						OFFSET -2.754700 0.931300 11.300900
						CHANNELS 3 Xrotation Yrotation Zrotation
						End Site
						{
							OFFSET 0.000000 11.669021 0.000000
						}
					}
				}
			}
		}
	}
}
MOTION
Frames: 6
Frame Time: 0.033333
-1.369060 201.963287 -19.686020 81.429351 12.573151 -2.723701 -1.247592 -0.061837 -1.353181 -0.157577 -1.680412 -0.591320 -0.155795 -1.655291 -0.640007 -14.869527 0.113157 -6.960850 -2.645131 -13.056888 -1.147616 0.000001 -0.000000 -0.000000 0.895020 -25.983645 -8.158374 -54.866059 10.866467 40.896506 -0.000001 -39.686442 -0.000006 -38.938755 17.639631 29.407475 1.948736 -8.351820 7.970049 5.324176 -1.260800 2.764922 0.483528 13.886912 3.684743 0.000000 0.000002 -0.000005 -0.522601 -11.072374 -3.369055 0.226105 1.753413 -14.694495 0.023649 0.571389 -4.740260 0.000000 0.000001 0.000000 0.062590 0.928196 -7.715266 0.054544 0.866748 -7.201690 0.087828 1.098485 -9.142266 -0.000000 -0.000001 -0.000000 1.761575 10.662856 -9.395440 0.044864 0.786364 -6.530629 0.000000 0.000000 -0.000001 -0.000001 0.000000 0.000001 5.004150 26.589889 -9.706465 0.175106 -2.492402 -13.569540 0.023331 0.567537 -4.708272 -0.000001 0.000001 -0.000000 -0.574424 -2.915801 -11.028691 -42.948161 -27.370240 -13.557850 0.000022 30.962832 -0.000003 -48.196540 -8.588718 -37.432886 -1.315272 -2.065202 -4.401517 0.937933 -0.115750 1.884199 -4.177380 7.454634 0.127527 0.000001 0.000000 0.000001 -0.319170 17.000331 2.135303 0.061069 -0.921387 7.583357 0.006900 -0.310291 2.546920 -0.000001 0.000000 -0.000000 -0.026766 2.832611 0.711334 0.071312 -0.995289 8.195769 0.159375 -1.198116 9.961933 0.000000 -0.000000 0.000002 0.769021 -9.114171 4.487319 0.148475 -1.432078 11.837581 -0.799839 -0.529576 3.886221 0.000000 0.000000 0.000000 5.049086 -22.953648 11.801489 0.141616 -1.398987 11.560094 -0.000002 -0.000001 -0.000001 -0.000003 0.000000 -0.000001 11.488744 13.094923 41.235372 32.740430 5.095298 0.750601 57.043387 -0.667243 -12.972179 0.581887 0.000015 -0.000014 0.000001 -0.000004 -0.000001 25.210734 -24.072109 -22.208739 24.306150 8.858770 -2.595711 58.166280 9.866863 20.090506 4.262360 0.000006 0.000002 0.000001 -0.000003 -0.000001 
-0.353672 189.736816 -19.944550 80.925447 13.175994 -2.863235 -1.480793 -0.470963 -1.104828 -0.216828 -1.734551 -0.655604 -0.215220 -1.702195 -0.714358 -17.136506 0.118782 -6.616936 -2.259265 -13.927691 -2.218327 -0.000000 -0.000000 0.000000 0.766714 -26.757092 -8.824056 -52.485984 6.773712 36.079511 -0.000014 -38.995032 -0.000011 -39.820863 18.879766 29.750282 1.948734 -8.351830 7.970049 5.324176 -1.260802 2.764935 0.483531 13.886914 3.684758 -0.000000 0.000001 0.000001 -0.522597 -11.072367 -3.369053 0.226105 1.753404 -14.694489 0.023650 0.571388 -4.740257 0.000000 -0.000002 -0.000000 0.062590 0.928189 -7.715259 0.054545 0.866752 -7.201683 0.087825 1.098480 -9.142269 0.000000 -0.000000 0.000000 1.761575 10.662854 -9.395431 0.044866 0.786364 -6.530629 0.000001 0.000000 -0.000001 0.000000 0.000000 -0.000000 5.004152 26.589891 -9.706465 0.175105 -2.492401 -13.569543 0.023330 0.567540 -4.708272 -0.000001 -0.000000 0.000000 -0.285088 -1.564278 -10.079226 -41.680984 -26.644954 -10.454399 0.000002 41.145408 -0.000005 -49.528550 -13.470170 -39.209527 -1.315271 -2.065204 -4.401520 0.937934 -0.115756 1.884195 -4.177380 7.454624 0.127538 0.000000 0.000001 -0.000001 -0.319166 17.000334 2.135299 0.061066 -0.921383 7.583355 0.006897 -0.310277 2.546927 -0.000001 -0.000002 -0.000001 -0.026761 2.832612 0.711333 0.071311 -0.995299 8.195762 0.159374 -1.198115 9.961936 0.000001 -0.000000 -0.000000 0.769023 -9.114168 4.487323 0.148467 -1.432077 11.837579 -0.799833 -0.529577 3.886220 -0.000002 -0.000001 0.000000 5.049088 -22.953650 11.801488 0.141617 -1.398985 11.560092 -0.000000 0.000001 -0.000001 -0.000001 -0.000000 0.000001 10.451492 12.172003 38.219000 32.403565 6.669240 0.743333 52.827627 -0.760260 -11.913996 1.104840 0.000008 -0.000015 -0.000003 0.000000 -0.000001 27.768178 -25.115715 -18.527245 18.794988 8.465335 -3.595694 58.378631 10.320917 14.937863 4.349777 -0.000012 0.000005 0.000001 0.000001 -0.000002 
0.345754 176.634674 -21.115311 81.116665 13.564710 -3.062902 -1.688175 -0.800071 -0.871471 -0.294147 -1.832305 -0.707015 -0.295140 -1.793041 -0.776357 -20.606921 0.031359 -6.108078 -1.791537 -15.699176 -3.151895 0.000003 -0.000000 -0.000000 0.635486 -27.412833 -9.457809 -50.167599 1.680628 31.335443 0.000002 -38.175317 -0.000000 -40.980534 19.980808 30.553875 1.948735 -8.351834 7.970048 5.324177 -1.260787 2.764917 0.483526 13.886912 3.684762 0.000000 -0.000000 0.000001 -0.522599 -11.072377 -3.369050 0.226107 1.753422 -14.694493 0.023652 0.571388 -4.740258 0.000000 -0.000001 0.000000 0.062589 0.928186 -7.715266 0.054548 0.866749 -7.201681 0.087827 1.098481 -9.142268 0.000000 0.000000 -0.000001 1.761572 10.662849 -9.395437 0.044863 0.786364 -6.530628 0.000001 -0.000000 -0.000000 0.000000 -0.000000 0.000000 5.004146 26.589887 -9.706462 0.175106 -2.492398 -13.569545 0.023329 0.567538 -4.708271 0.000000 0.000001 -0.000000 -0.037532 -0.256053 -9.476997 -39.430098 -21.942635 -6.327981 0.000003 45.191284 -0.000002 -50.589131 -15.337982 -39.301977 -1.315269 -2.065202 -4.401522 0.937934 -0.115758 1.884198 -4.177377 7.454623 0.127539 0.000003 -0.000001 0.000002 -0.319166 17.000346 2.135298 0.061066 -0.921385 7.583355 0.006897 -0.310286 2.546919 0.000001 -0.000000 -0.000002 -0.026763 2.832620 0.711334 0.071310 -0.995297 8.195766 0.159371 -1.198109 9.961932 0.000001 0.000001 0.000000 0.769020 -9.114164 4.487317 0.148474 -1.432081 11.837580 -0.799840 -0.529579 3.886219 0.000000 -0.000001 -0.000000 5.049085 -22.953646 11.801483 0.141618 -1.398986 11.560095 0.000000 0.000000 0.000001 -0.000001 -0.000000 -0.000000 6.092966 9.335230 35.051175 34.873109 7.086504 0.765866 46.960020 -0.258442 -14.635697 1.561967 0.000018 -0.000006 -0.000002 0.000001 0.000002 25.931783 -24.218913 -16.728175 17.588881 8.059736 -3.599899 56.091887 11.593996 11.543546 4.084385 0.000002 -0.000007 -0.000000 0.000001 -0.000000 
0.596538 162.029160 -22.352707 81.633137 13.655411 -3.098351 -1.807305 -0.886400 -0.859553 -0.338481 -1.917834 -0.746394 -0.343468 -1.873060 -0.823239 -24.083841 -0.371933 -5.663612 -1.396364 -18.984883 -3.644133 -0.000001 -0.000000 0.000001 0.450274 -28.367225 -10.292164 -48.179584 -4.172534 27.753451 0.000003 -36.919129 -0.000001 -41.874363 20.658153 32.113634 1.948740 -8.351830 7.970048 5.324178 -1.260799 2.764926 0.483528 13.886912 3.684756 0.000000 -0.000001 -0.000001 -0.522596 -11.072369 -3.369058 0.226103 1.753408 -14.694496 0.023652 0.571388 -4.740255 0.000000 -0.000002 -0.000001 0.062592 0.928190 -7.715268 0.054545 0.866746 -7.201686 0.087830 1.098480 -9.142269 0.000001 -0.000001 0.000001 1.761580 10.662856 -9.395437 0.044864 0.786365 -6.530630 0.000003 0.000001 0.000001 -0.000000 -0.000000 0.000000 5.004152 26.589889 -9.706464 0.175106 -2.492403 -13.569545 0.023328 0.567535 -4.708271 -0.000001 0.000000 0.000000 0.183261 1.028253 -9.281115 -38.153181 -14.535597 -2.835329 -0.000007 43.511959 0.000011 -49.430547 -14.662142 -37.011409 -1.315266 -2.065206 -4.401515 0.937925 -0.115742 1.884197 -4.177380 7.454635 0.127534 0.000002 0.000001 0.000000 -0.319167 17.000334 2.135303 0.061068 -0.921400 7.583358 0.006897 -0.310263 2.546924 0.000000 -0.000001 0.000000 -0.026763 2.832609 0.711338 0.071307 -0.995288 8.195763 0.159373 -1.198112 9.961936 -0.000001 -0.000001 -0.000000 0.769020 -9.114167 4.487321 0.148471 -1.432073 11.837580 -0.799837 -0.529577 3.886219 -0.000001 0.000000 -0.000000 5.049089 -22.953650 11.801488 0.141618 -1.398985 11.560096 -0.000000 -0.000000 0.000001 0.000001 -0.000000 0.000000 1.662726 7.258430 31.281071 35.539561 7.238065 0.973500 41.927601 1.840950 -18.239814 1.964990 0.000033 -0.000013 -0.000001 0.000001 0.000002 21.871034 -22.731732 -15.532487 17.750501 8.123109 -3.549055 52.989393 13.136447 10.386158 3.751464 -0.000005 -0.000003 0.000000 -0.000000 -0.000000 
0.681983 145.653809 -23.066132 82.126311 13.455657 -2.902844 -1.815367 -0.849770 -1.009916 -0.290237 -1.918704 -0.777826 -0.298136 -1.870221 -0.856492 -26.999710 -1.183760 -5.562798 -0.898966 -24.090578 -3.535872 0.000003 -0.000000 -0.000001 0.173320 -29.740713 -11.425562 -46.298605 -10.175483 26.045863 -0.000001 -34.725286 -0.000004 -42.796230 20.550373 34.315871 1.948734 -8.351830 7.970050 5.324179 -1.260805 2.764921 0.483530 13.886914 3.684762 -0.000000 -0.000001 -0.000001 -0.522594 -11.072370 -3.369056 0.226108 1.753415 -14.694491 0.023648 0.571383 -4.740255 -0.000000 0.000001 0.000001 0.062589 0.928185 -7.715266 0.054548 0.866750 -7.201681 0.087831 1.098481 -9.142265 -0.000000 0.000001 -0.000000 1.761578 10.662852 -9.395433 0.044866 0.786362 -6.530630 -0.000001 0.000002 -0.000001 -0.000002 -0.000000 0.000000 5.004147 26.589889 -9.706463 0.175108 -2.492401 -13.569538 0.023333 0.567540 -4.708283 -0.000001 -0.000000 0.000001 0.185887 1.080900 -9.569892 -38.784270 -4.957830 0.699796 -0.000012 37.598877 0.000004 -45.955043 -12.208970 -32.757399 -1.315266 -2.065202 -4.401519 0.937936 -0.115763 1.884195 -4.177379 7.454635 0.127534 -0.000000 0.000001 0.000001 -0.319165 17.000334 2.135302 0.061066 -0.921395 7.583358 0.006898 -0.310285 2.546921 0.000001 -0.000000 -0.000000 -0.026761 2.832608 0.711339 0.071307 -0.995292 8.195764 0.159372 -1.198108 9.961933 0.000000 -0.000003 -0.000003 0.769022 -9.114177 4.487319 0.148474 -1.432071 11.837579 -0.799838 -0.529581 3.886218 0.000000 -0.000001 -0.000001 5.049091 -22.953653 11.801489 0.141618 -1.398984 11.560094 -0.000000 -0.000000 0.000000 -0.000000 -0.000000 0.000002 -0.473153 7.018789 27.157442 32.367194 7.502281 1.072680 38.948778 3.770550 -19.427795 2.255629 -0.000015 0.000008 -0.000003 0.000001 0.000002 17.859341 -21.687895 -14.487816 16.294492 8.307983 -3.549709 51.053762 15.231858 9.716598 3.566723 0.000003 -0.000002 -0.000000 0.000000 0.000000 
0.814952 127.809525 -23.226799 82.524518 12.757549 -2.528925 -1.757294 -0.769304 -1.188125 -0.115508 -1.814709 -0.797711 -0.124847 -1.763466 -0.874682 -29.531877 -2.381281 -5.637066 -0.185451 -30.753220 -3.014308 0.000001 0.000000 -0.000000 -0.110968 -31.028098 -12.478585 -43.872569 -15.543612 25.908070 0.000004 -31.570890 -0.000002 -43.629264 19.599233 37.276659 1.948736 -8.351825 7.970049 5.324175 -1.260809 2.764922 0.483532 13.886922 3.684759 -0.000000 0.000001 -0.000003 -0.522598 -11.072364 -3.369056 0.226104 1.753408 -14.694493 0.023651 0.571386 -4.740257 0.000000 -0.000001 -0.000001 0.062591 0.928192 -7.715265 0.054543 0.866744 -7.201681 0.087825 1.098480 -9.142266 0.000001 0.000001 -0.000001 1.761573 10.662849 -9.395435 0.044870 0.786365 -6.530626 0.000003 0.000001 -0.000001 0.000001 0.000001 0.000000 5.004154 26.589887 -9.706465 0.175107 -2.492400 -13.569545 0.023331 0.567538 -4.708275 -0.000001 -0.000000 -0.000000 -0.149396 -0.875724 -9.668186 -41.661835 7.858536 4.992822 0.000004 27.385695 -0.000003 -42.299727 -8.047745 -27.026615 -1.315267 -2.065207 -4.401514 0.937934 -0.115757 1.884197 -4.177377 7.454628 0.127532 -0.000001 0.000004 0.000001 -0.319173 17.000356 2.135308 0.061069 -0.921404 7.583354 0.006896 -0.310272 2.546926 -0.000001 -0.000001 -0.000002 -0.026762 2.832610 0.711338 0.071306 -0.995292 8.195771 0.159371 -1.198107 9.961938 0.000000 0.000001 0.000000 0.769020 -9.114166 4.487320 0.148475 -1.432081 11.837578 -0.799835 -0.529576 3.886220 -0.000001 0.000002 0.000000 5.049086 -22.953648 11.801489 0.141619 -1.398987 11.560085 -0.000000 0.000000 0.000002 -0.000000 -0.000000 0.000003 0.378713 8.191643 23.155274 25.467883 7.649344 0.645815 38.417451 3.215584 -17.155478 2.372919 -0.000006 0.000003 0.000001 -0.000000 0.000003 14.540397 -21.263730 -13.656261 12.538981 8.584750 -3.668118 51.220548 18.250412 8.583145 3.374906 -0.000004 0.000000 -0.000001 -0.000000 -0.000000 
